<svg width="131" height="131" viewBox="0 0 131 131" fill="none" xmlns="http://www.w3.org/2000/svg">
<circle cx="65.5" cy="65.5" r="65.5" fill="#FAFAFA"/>
<path d="M40.1667 42.6667C35.1167 42.6667 31 46.7834 31 51.8334V52.6667H92.6667V51.8334C92.6667 46.7834 88.55 42.6667 83.5 42.6667H40.1667ZM96 51.0488V76.8334C96 83.7334 90.4 89.3334 83.5 89.3334H41.0488C42.9822 92.3334 46.35 94.3334 50.1667 94.3334H83.5C93.15 94.3334 101 86.4834 101 76.8334V60.1667C101 56.35 99 52.9822 96 51.0488ZM31 57.6667V76.8334C31 81.8834 35.1167 86 40.1667 86H83.5C88.55 86 92.6667 81.8834 92.6667 76.8334V57.6667H31ZM73.5 72.6667H81.8333C83.215 72.6667 84.3333 73.7867 84.3333 75.1667C84.3333 76.5467 83.215 77.6667 81.8333 77.6667H73.5C72.1183 77.6667 71 76.5467 71 75.1667C71 73.7867 72.1183 72.6667 73.5 72.6667Z" fill="#202C43"/>
</svg>
