<svg width="18" height="18" viewBox="0 0 18 18" fill="none" xmlns="http://www.w3.org/2000/svg">
<path d="M13.6875 2.25H4.3125C3.17513 2.25 2.25 3.1755 2.25 4.3125V12.5625C2.25 13.6995 3.17513 14.625 4.3125 14.625H6.74175L8.61938 16.3515C8.72663 16.4505 8.8635 16.5 9 16.5C9.13538 16.5 9.27113 16.4512 9.37838 16.3537L11.28 14.625H13.6875C14.8249 14.625 15.75 13.6995 15.75 12.5625V4.3125C15.75 3.1755 14.8249 2.25 13.6875 2.25ZM9.5625 11.8125C9.5625 12.123 9.31087 12.375 9 12.375C8.68913 12.375 8.4375 12.123 8.4375 11.8125V8.0625C8.4375 7.752 8.68913 7.5 9 7.5C9.31087 7.5 9.5625 7.752 9.5625 8.0625V11.8125ZM9 6.375C8.58563 6.375 8.25 6.03937 8.25 5.625C8.25 5.21062 8.58563 4.875 9 4.875C9.41437 4.875 9.75 5.21062 9.75 5.625C9.75 6.03937 9.41437 6.375 9 6.375Z" fill="#202C43"/>
</svg>
