<svg width="1440" height="292" viewBox="0 0 1440 292" fill="none" xmlns="http://www.w3.org/2000/svg">
<g style="mix-blend-mode:soft-light" opacity="0.2">
<path d="M0 292V105.292H15.0142V82.6949H38.9473V104.653H63.6984V277.775H83.7368V231.263H109.053V217.057H135.03V229.325H145.488V205.429H186.947V191.223H203.909V203.491H214.288V126.61H225.33V94.9625L231.815 89.788L238.961 94.9625V122.734H246.108V107.889H277.422V123.064H286.185V253.879H290.567V148.742H310.527V128.878H340.711V144.866H345.58V281.98H421.04V257.755H426.882V36.3377H434.672V28.1011H449.277V0H466.316V3.87602H477.514V26.6476H485.303V203.007H501.369V189.441H519.382V182.173H551.027V273.744H568.066V171.998H588.514V155.041H616.751V169.091H625.027V281.98H640.606V122.579H658.132V98.8385H688.316V120.641H693.185V204.46H705.843V170.06H718.987V148.258L727.75 142.928L735.053 148.258V167.638H760.369V216.573H766.211V92.54H821.224V272.29H840.698V230.623H851.895V203.007H862.119V182.173H883.053V204.46H905.935V279.558H917.132V170.06H970.685V279.558H990.158V39.2447H1014.01V1.93801H1041.28V38.2757H1047.61V280.042H1052.47V170.545H1111.87V273.259H1130.37V256.302H1162.5V264.054H1186.36V285.372H1196.58V168.607L1213.37 151.901H1243.8V250.003H1256.95V268.414H1326.57V281.98H1336.79V230.139H1363.57V216.573H1390.34V226.747H1401.05V119.672H1414.2V109.013H1440V290.217C1440 290.217 0.155789 291.826 0 292Z" fill="#39517a"/>
</g>
</svg>
