<svg width="51" height="69" viewBox="0 0 51 69" fill="none" xmlns="http://www.w3.org/2000/svg">
<path d="M50.3516 42.4471C51.4022 50.9018 50.7596 59.0685 50.7596 67.9287V68.25C46.8024 68.25 43.0447 68.0387 39.5995 67.8825C38.8532 67.8478 37.8465 67.0841 37.482 66.3898C30.5483 53.1124 19.0484 50.0501 5.20691 51.5514C3.44526 51.777 1.93673 52.046 0.0102049 51.9853V17.707C16.2555 25.1701 32.2926 32.3458 48.347 40.0346C49.2234 40.4598 50.3342 41.614 50.3516 42.4471Z" fill="white"/>
<path d="M0.0102049 10.9284C0.0102049 7.5312 7.62939e-05 4.44682 7.62939e-05 0.784679C7.17682 0.784679 13.9656 0.706621 20.5609 0.784724C21.4461 0.793402 22.443 1.209 23.0244 1.81647C30.4181 9.53993 37.7337 17.3328 44.6414 25.7418C30.5483 22.4529 16.6807 18.3481 2.74379 14.5038C0.7218 13.9571 0.0102049 12.9927 0.0102049 10.9284Z" fill="white"/>
</svg>
