<svg width="62" height="82" viewBox="0 0 62 82" fill="none" xmlns="http://www.w3.org/2000/svg">
<path d="M61.1678 50.6542C62.444 60.9251 61.6635 70.8461 61.6635 81.6097V82C56.8562 82 52.2912 81.7433 48.1059 81.5535C47.1993 81.5113 45.9764 80.5836 45.5336 79.7402C37.1104 63.6106 23.1402 59.8904 6.32534 61.7142C4.18526 61.9883 2.35268 62.3151 0.0123044 62.2413V20.5996C19.7473 29.6659 39.2294 38.3831 58.7325 47.7235C59.7973 48.2401 61.1467 49.6422 61.1678 50.6542Z" fill="#0B1F2A"/>
<path d="M0.0123044 12.3649C0.0123044 8.23789 0 4.49093 0 0.0421147C8.71842 0.0421147 16.9655 -0.0527111 24.9776 0.0421689C26.0529 0.0527111 27.264 0.557592 27.9703 1.29555C36.9523 10.6781 45.8394 20.145 54.231 30.3605C37.1104 26.3649 20.2639 21.3785 3.3331 16.7083C0.876761 16.0441 0.0123044 14.8726 0.0123044 12.3649Z" fill="#0B1F2A"/>
</svg>
