<svg xmlns="http://www.w3.org/2000/svg" width="120" height="174" fill="#0b1f2a" xmlns:v="https://vecta.io/nano"><path d="M90.168 50.654c1.276 10.271.496 20.192.496 30.956V82c-4.807 0-9.372-.257-13.558-.447-.907-.042-2.13-.97-2.572-1.813-8.423-16.13-22.393-19.85-39.208-18.026-2.14.274-3.973.601-6.313.527V20.6l58.72 27.124c1.065.517 2.414 1.919 2.435 2.931zM29.012 12.365L29 .042h24.978c1.075.011 2.286.515 2.993 1.253 8.982 9.383 17.869 18.849 26.261 29.065-17.121-3.996-33.967-8.982-50.898-13.652-2.456-.664-3.321-1.836-3.321-4.343zM3.947 138.024L11.562 133h-1.57c-1.204 0-2.447-.379-3.729-1.138-1.256-.785-2.303-1.858-3.14-3.219a8.44 8.44 0 0 1-1.256-4.513c0-1.597.392-3.075 1.177-4.436a9.25 9.25 0 0 1 3.258-3.257c1.361-.811 2.852-1.217 4.474-1.217h8.91v19.585l-12.364 8.243-3.375-5.024zm9.695-11.068v-5.731h-2.865a2.81 2.81 0 0 0-1.452.393 2.94 2.94 0 0 0-1.06 1.059 2.98 2.98 0 0 0-.353 1.413c0 .524.118 1.008.353 1.453a3.06 3.06 0 0 0 1.06 1.02 2.81 2.81 0 0 0 1.452.393h2.865zm4.082 0h3.925l1.06 3.022-1.06 3.022h-3.925v-6.044zm2.824 3.022l1.099-3.022h7.379l1.099 3.1-1.1 2.944h-7.379l-1.099-3.022zm7.398 0l1.099-3.022h7.379l1.099 3.1-1.1 2.944h-7.379l-1.099-3.022zM36.363 133l-1.02-3.022 1.06-3.022h.039c.785 0 1.452-.275 2.002-.825.576-.549.864-1.229.864-2.041v-7.143l6.044-1.491v8.634a2.77 2.77 0 0 0 .824 2.041c.549.549 1.23.825 2.041.825l1.06 3.022-1.06 3.022a8.39 8.39 0 0 1-3.218-.628c-1.02-.419-1.91-.994-2.669-1.727-.811.733-1.714 1.308-2.708 1.727a8.1 8.1 0 0 1-3.179.628h-.078zm4.003-26.219h4.906v4.671h-4.906v-4.671zm6.743 23.197l1.099-3.022h7.379l1.099 3.1L55.588 133h-7.379l-1.099-3.022zm7.398 0l1.099-3.022h7.379l1.099 3.1L62.985 133h-7.379l-1.099-3.022zM62.886 133l-.981-3.022 1.02-3.022h.078c.785 0 1.452-.275 2.002-.825s.824-1.229.824-2.041v-7.143l6.084-1.491v8.634a8.58 8.58 0 0 1-1.217 4.475 8.95 8.95 0 0 1-3.218 3.258c-1.361.785-2.852 1.177-4.474 1.177h-.118zm6.044 8.596H58.569v-4.71h10.362v4.71zm3.291-3.611l3.729-2.512v-18.487l6.084-1.53v23.235l-6.476 4.318-3.336-5.024zM95.163 133c-1.622 0-3.114-.392-4.474-1.177a9.26 9.26 0 0 1-3.258-3.258c-.785-1.361-1.177-2.852-1.177-4.475v-17.034l6.005-1.491v18.525a2.77 2.77 0 0 0 .824 2.041 2.9 2.9 0 0 0 2.08.825l1.06 3.022-1.06 3.022zm-1.099-3.022l1.099-3.022h7.379l1.099 3.1-1.099 2.944h-7.379l-1.099-3.022zm7.397 0l1.099-3.022h7.379l1.099 3.1-1.099 2.944h-7.379l-1.099-3.022zM109.84 133l-.981-3.022 1.02-3.022h.079a2.72 2.72 0 0 0 2.001-.825c.55-.549.825-1.229.825-2.041v-7.143l6.083-1.491v8.634c0 1.623-.405 3.114-1.216 4.475-.785 1.36-1.858 2.446-3.219 3.258-1.361.785-2.852 1.177-4.474 1.177h-.118zm-1.413 3.964h4.906v4.671h-4.906v-4.671zM1.54 168a10.51 10.51 0 0 1-.464-.011l-.48-.033v-.95l.58.039.475.011.392-.006a2.38 2.38 0 0 0 .282-.022l-.083-.497-.276-1.352-.53-1.927a20.4 20.4 0 0 0-.834-2.209l.856-.397a23.44 23.44 0 0 1 .834 2.285l.541 1.999.293 1.408.088.519a2.23 2.23 0 0 0 .734-.353c.217-.162.388-.396.513-.701s.188-.726.188-1.248v-4.213h.944v4.229c0 .696-.099 1.268-.298 1.717a2.43 2.43 0 0 1-.845 1.044 3.44 3.44 0 0 1-1.281.519A8.29 8.29 0 0 1 1.54 168zm5.273-7.658h.944v5.334c0 .519.094.868.282 1.049s.48.27.867.27h.133V168h-.133c-.703 0-1.228-.186-1.574-.558s-.519-.966-.519-1.772v-5.328zm2.883 2.302l.999.713a8.75 8.75 0 0 1 .966.795 3.81 3.81 0 0 1 .729.9c.188.316.282.655.282 1.016-.004.684-.241 1.177-.712 1.479s-1.215.453-2.242.453H8.382v-1.005h1.331c.714 0 1.226-.062 1.535-.188s.464-.382.464-.762c0-.242-.087-.48-.26-.712s-.39-.46-.663-.684l-.867-.669-.872-.651c-.25-.199-.375-.418-.375-.657a.9.9 0 0 1 .138-.464.77.77 0 0 1 .386-.337l3.97-1.612v.977l-3.473 1.408zm9.746 8.144c-.795 0-1.432-.145-1.91-.436s-.819-.679-1.032-1.165a3.94 3.94 0 0 1-.315-1.59 6.15 6.15 0 0 1 .122-1.198 8.31 8.31 0 0 1 .331-1.204l.878.354a10.52 10.52 0 0 0-.271 1.043c-.074.357-.11.703-.11 1.038a2.74 2.74 0 0 0 .21 1.088c.14.328.383.589.718.784s.795.292 1.38.292c.523 0 .985-.066 1.386-.198s.722-.298.95-.508.348-.425.348-.657a.58.58 0 0 0-.105-.332c-.07-.103-.197-.154-.381-.154h-.894c-.545 0-.928-.131-1.148-.392s-.326-.632-.326-1.099a2.99 2.99 0 0 1 .298-1.336c.199-.409.482-.734.85-.977s.804-.365 1.309-.365a2.55 2.55 0 0 1 .602.077 2.01 2.01 0 0 1 .64.293l-.315.839a2.03 2.03 0 0 0-.928-.221c-.468 0-.834.164-1.099.492s-.392.727-.392 1.198c0 .173.035.3.105.381s.212.116.425.116h.927c.508 0 .854.138 1.038.414s.282.62.282 1.044c0 .408-.136.793-.409 1.154s-.668.658-1.198.883-1.185.342-1.966.342zm5.456-10.446v7.652h-.944v-7.652h.944zm1.823 3.572l-.215-.193.585-.756 1.281 1.126c.372.346.663.686.872 1.021s.315.676.315 1.033c0 .559-.191 1.005-.574 1.336s-.887.497-1.513.497c-.641 0-1.148-.157-1.524-.469s-.563-.718-.563-1.204c0-.427.114-.825.342-1.193s.559-.771.994-1.198zm1.899 2.187a.89.89 0 0 0-.188-.519c-.126-.176-.276-.359-.464-.536l-.563-.519c-.339.324-.604.615-.795.872s-.287.521-.287.801a.72.72 0 0 0 .271.558c.181.159.471.237.872.237s.697-.074.878-.221.276-.372.276-.673zm2.833.905c1.413 0 2.12-.366 2.12-1.099 0-.346-.177-.712-.53-1.098s-.939-.803-1.756-1.248l.436-.873c.946.483 1.647.992 2.104 1.53s.69 1.091.69 1.673c0 .692-.239 1.215-.718 1.568s-1.229.53-2.264.53a6.13 6.13 0 0 1-1.336-.133v-.999a6.36 6.36 0 0 0 1.253.149zm3.998-6.664h.944v5.334c0 .519.094.868.282 1.049s.48.27.867.27h.133V168h-.133c-.703 0-1.227-.186-1.574-.558s-.519-.966-.519-1.772v-5.328zm5.345 8.503l.801.8-.801.801-.8-.801.8-.8zm-3.777-1.85h.928a5.63 5.63 0 0 0 1.623-.226 9.82 9.82 0 0 0 1.507-.602l1.574-.801-.359-.138-.309-.132-.436-.182-.972-.381c-.254-.092-.451-.138-.591-.138-.224 0-.442.066-.651.198a2.01 2.01 0 0 0-.524.47l-.149.187-.845-.414.083-.132c.243-.394.543-.709.9-.944s.758-.359 1.193-.359c.239 0 .504.051.795.154a9.24 9.24 0 0 1 .955.398l1.48.64c.398.137.764.214 1.099.232v.955c-.236.026-.519.109-.85.249a19.16 19.16 0 0 0-1.369.673l-1.369.669a8.15 8.15 0 0 1-1.342.463c-.453.111-.939.166-1.458.166h-.911v-1.005zm13.39 3.744c-.685 0-1.242-.124-1.673-.37a2.22 2.22 0 0 1-.95-1.022c-.203-.438-.304-.946-.304-1.524 0-.39.04-.789.121-1.198a8.3 8.3 0 0 1 .331-1.203l.878.353a10.59 10.59 0 0 0-.27 1.043c-.074.357-.11.703-.11 1.038 0 .597.151 1.061.453 1.392s.813.497 1.524.497c.659 0 1.154-.181 1.485-.541s.502-.943.502-1.745v-7.117h.944v5.4c0 .412.074.725.221.938s.449.315.894.315h.16V168h-.149a2.7 2.7 0 0 1-.514-.039.95.95 0 0 1-.326-.138c-.088-.062-.186-.143-.293-.243 0 1.053-.25 1.843-.751 2.369s-1.226.79-2.175.79zm7.471-9.757l.773.768-.773.778-.767-.778.767-.768zm-1.833 0l.773.768-.773.778-.767-.778.767-.768zm2.976 4.417c0 .291-.07.562-.21.812s-.316.501-.541.762l.558.022h.431.53V168h-.514c-.14 0-.333-.011-.58-.033a7.58 7.58 0 0 1-.806-.127 6.43 6.43 0 0 1-.861-.238 5.66 5.66 0 0 1-.872.243l-.828.122-.607.033h-.762v-1.005h.762.48l.613-.027a4.36 4.36 0 0 1-.535-.768 1.73 1.73 0 0 1-.199-.812c0-.228.053-.46.16-.695a2.48 2.48 0 0 1 .442-.652 2.35 2.35 0 0 1 .63-.486c.236-.125.477-.187.723-.187.258 0 .504.062.74.187a2.29 2.29 0 0 1 .641.486 2.35 2.35 0 0 1 .442.657c.11.236.166.47.166.701zm-1.988-1.054c-.14 0-.289.055-.447.166s-.287.242-.398.408-.166.326-.166.491.052.343.155.519.237.339.392.486a2.11 2.11 0 0 0 .475.343 1.83 1.83 0 0 0 .729-.569c.206-.265.309-.528.309-.79 0-.154-.057-.312-.171-.474a1.57 1.57 0 0 0-.414-.414c-.162-.111-.317-.166-.464-.166zM59.747 168h-.607v-1.005h.596c.493 0 .823-.107.988-.32s.254-.51.254-.878c0-.206-.02-.462-.061-.767a6.62 6.62 0 0 0-.188-.912l.944-.253a5.14 5.14 0 0 1 .188.938l.055.906c0 .441-.061.835-.182 1.181a1.53 1.53 0 0 1-.646.812c-.313.199-.76.298-1.342.298zm.955-6.598l.801.801-.801.8-.801-.8.801-.801zm8.371 5.654c0 2.149-1.18 3.451-3.539 3.903l-.326-.877c.847-.162 1.522-.433 2.026-.812s.802-.849.894-1.419a3.96 3.96 0 0 1-.486.116 2.8 2.8 0 0 1-.486.05c-1.344 0-2.015-.571-2.015-1.712a3.13 3.13 0 0 1 .21-1.121 2.23 2.23 0 0 1 .624-.911c.276-.239.62-.364 1.032-.364.364 0 .675.09.933.27s.475.416.64.718.293.64.37 1.016.121.753.121 1.143zm-1.888-.039a3.38 3.38 0 0 0 .966-.143c-.037-.619-.151-1.101-.342-1.447s-.462-.524-.812-.524c-.243 0-.433.081-.569.242a1.39 1.39 0 0 0-.282.558c-.056.213-.077.403-.077.569 0 .269.092.46.276.574s.464.171.839.171zm8.04 3.722c-.685 0-1.242-.124-1.673-.37a2.22 2.22 0 0 1-.95-1.022c-.203-.438-.304-.946-.304-1.524 0-.39.04-.789.121-1.198a8.31 8.31 0 0 1 .331-1.203l.878.353a10.59 10.59 0 0 0-.27 1.043c-.074.357-.11.703-.11 1.038 0 .597.151 1.061.453 1.392s.813.497 1.524.497c.659 0 1.154-.181 1.485-.541s.502-.943.502-1.745v-7.117h.944v5.4c0 .412.074.725.221.938s.449.315.894.315h.16V168h-.149a2.7 2.7 0 0 1-.514-.039.95.95 0 0 1-.326-.138c-.088-.062-.186-.143-.293-.243 0 1.053-.25 1.843-.751 2.369s-1.226.79-2.175.79zM79.008 168h-.232v-1.005h.204c.247 0 .454-.07.624-.21a2.07 2.07 0 0 0 .453-.552l.392-.712c.133-.254.28-.493.442-.718a2.01 2.01 0 0 1 .585-.546c.232-.144.517-.216.856-.216.578 0 1.027.177 1.347.53s.536.786.646 1.309c.074.361.199.637.376.828a.83.83 0 0 0 .624.287h.144V168h-.149a1.74 1.74 0 0 1-.69-.144 1.24 1.24 0 0 1-.547-.469 1.82 1.82 0 0 1-.574.541c-.228.133-.525.199-.889.199s-.708-.079-1.021-.237-.631-.405-.966-.729c-.239.268-.469.476-.69.624s-.532.215-.933.215zm3.346-2.982a.77.77 0 0 0-.502.188 1.89 1.89 0 0 0-.409.475c-.122.195-.23.398-.326.607a4.14 4.14 0 0 0 .364.337 3.15 3.15 0 0 0 .353.254c.294.181.552.271.773.271.545 0 .817-.275.817-.823 0-.383-.096-.696-.287-.939a.93.93 0 0 0-.784-.37zm2.452 1.977h.928a5.63 5.63 0 0 0 1.623-.226c.504-.151 1.01-.355 1.507-.602l1.574-.801-.359-.138-.309-.132-.436-.182-.972-.381c-.254-.092-.451-.138-.591-.138-.225 0-.442.066-.651.198a2.03 2.03 0 0 0-.525.47l-.149.187-.845-.414.083-.132c.243-.394.543-.709.9-.944s.758-.359 1.193-.359c.239 0 .504.051.795.154a9.24 9.24 0 0 1 .955.398l1.48.64c.397.137.764.214 1.099.232v.955c-.236.026-.519.109-.85.249a19.16 19.16 0 0 0-1.369.673l-1.369.669a8.15 8.15 0 0 1-1.342.463 6.11 6.11 0 0 1-1.458.166h-.911v-1.005zm11.8-3.081l-.215-.193.585-.756 1.281 1.126c.372.346.663.686.872 1.021s.315.676.315 1.033c0 .559-.191 1.005-.574 1.336s-.887.497-1.513.497c-.64 0-1.148-.157-1.524-.469s-.563-.718-.563-1.204c0-.427.114-.825.342-1.193s.559-.771.994-1.198zm1.899 2.187c0-.17-.063-.343-.188-.519a3.57 3.57 0 0 0-.464-.536l-.563-.519c-.339.324-.604.615-.795.872s-.287.521-.287.801c0 .214.09.399.27.558s.471.237.872.237.697-.074.878-.221.276-.372.276-.673zm1.872-5.759h.944v5.334c0 .519.094.868.282 1.049s.48.27.867.27h.132V168h-.132c-.703 0-1.228-.186-1.574-.558s-.519-.966-.519-1.772v-5.328zm2.121.972v-.608l4.196-1.7v.607l-4.196 1.701zm.762 1.33l.999.713a8.73 8.73 0 0 1 .966.795c.302.279.545.579.729.9s.282.655.282 1.016c-.004.684-.241 1.177-.712 1.479s-1.215.453-2.242.453h-1.336v-1.005h1.33c.714 0 1.226-.062 1.535-.188s.464-.382.464-.762c0-.242-.086-.48-.259-.712a3.95 3.95 0 0 0-.663-.684l-.867-.669-.872-.651c-.25-.199-.376-.418-.376-.657a.9.9 0 0 1 .138-.464.77.77 0 0 1 .387-.337l3.97-1.612v.977l-3.473 1.408zm2.501 8.326l-.325-.877c.898-.195 1.531-.538 1.899-1.027s.552-1.062.552-1.729c0-.312-.035-.64-.105-.982s-.16-.698-.281-1.055l.916-.309c.265.754.398 1.481.398 2.181 0 .615-.109 1.183-.326 1.706a3.27 3.27 0 0 1-.999 1.336c-.449.368-1.025.62-1.729.756zm4.948-10.628v7.652h-.944v-7.652h.944zm1.8 1.977l.801.8-.801.801-.8-.801.8-.8zm-1.965 8.651l-.326-.877c.898-.195 1.531-.538 1.899-1.027s.553-1.062.553-1.729c0-.312-.035-.64-.105-.982a7.91 7.91 0 0 0-.282-1.055l.917-.309c.265.754.397 1.481.397 2.181 0 .615-.108 1.183-.326 1.706a3.26 3.26 0 0 1-.999 1.336c-.449.368-1.025.62-1.728.756zm4.003-10.628h.944v5.334c0 .519.094.868.282 1.049s.48.27.867.27h.132V168h-.132c-.703 0-1.228-.186-1.574-.558s-.519-.966-.519-1.772v-5.328zm2.287 7.658h-.735v-1.005h.723c.494 0 .823-.107.989-.32s.254-.51.254-.878c0-.206-.02-.462-.061-.767a6.45 6.45 0 0 0-.188-.912l.944-.253c.089.29.151.603.188.938l.055.906c0 .441-.06.835-.182 1.181s-.333.613-.646.812-.76.298-1.341.298zm.403.845l.8.8-.8.801-.801-.801.801-.8z"/></svg>