<svg width="273" height="379" viewBox="0 0 273 379" fill="none" xmlns="http://www.w3.org/2000/svg">
<path d="M25.01 240H50.78V262.24H0V38.6602H155.36C162.56 44.7202 168.6 54.6402 172.26 61.0202H25.01V240Z" fill="#202C43"/>
<path d="M177.6 240C169.29 240.23 160.1 240 150.82 240H177.6Z" fill="#202C43"/>
<path d="M174.69 262.24C174.69 262.24 175.74 262.23 177.6 262.17V262.24H174.69Z" fill="#202C43"/>
<path d="M167.3 286.49C145.89 302.03 117.16 301.75 114.44 301.73C113.6 301.72 95.53 301.7 79.29 301.68V378.07H53.52V65.1797H79.29V278.82C79.29 278.82 94.07 279.29 116.81 278.82C139.54 278.34 153.66 265.65 153.66 265.65H187.39C187.39 265.65 188.71 270.95 167.3 286.49Z" fill="#202C43"/>
<path d="M203.62 233.31C203.62 233.31 194.3 237.51 174.82 236.59C174.82 236.59 194.68 185.06 187.4 112.3C180.12 39.54 149.81 24.89 116.96 22.36H79.2V35.63H53.52V0H122.4C131.58 0.19 171.28 3.01 191.74 37.27C214.99 76.17 224.08 157.27 203.62 233.31Z" fill="#202C43"/>
<path d="M241.01 248.4C223.94 259.75 188.05 261.8 177.6 262.17C175.74 262.23 174.69 262.24 174.69 262.24H82.4199V240H150.82C160.1 240 169.29 240.23 177.6 240C196.5 239.49 211.92 237.07 222.06 230.4C247.09 213.96 246.31 156.89 242.14 111.79C237.98 66.7 207.91 65.18 207.91 65.18C204.38 51.54 196.92 39.54 196.92 39.54C251.87 45.35 264.84 68.87 270.93 122.93C276.63 173.56 269.81 229.27 241.01 248.4Z" fill="#202C43"/>
</svg>
